<?xml version="1.0" encoding="UTF-8"?>
<svg version="1.1" xmlns="http://www.w3.org/2000/svg" width="512" height="512">
<path d="M0 0 C45.99557195 -0.86478161 91.23543824 15.45100018 124.76171875 47.125 C126.09113823 48.25462233 127.42435593 49.37979312 128.76171875 50.5 C161.36169395 79.11480789 179.67586013 123.49027911 183.51171875 166 C183.619947 168.04049844 183.70262721 170.08248797 183.76171875 172.125 C183.80167969 173.32511719 183.84164063 174.52523437 183.8828125 175.76171875 C184.74120009 226.50757314 165.0382979 272.40569022 130.17578125 308.71484375 C125.68859861 313.27343047 120.85740716 317.26620107 115.76171875 321.125 C114.40046875 322.20974609 114.40046875 322.20974609 113.01171875 323.31640625 C74.74365424 353.21333165 26.15565839 364.24848481 -21.59521484 358.47998047 C-64.99403648 352.65124533 -108.12028384 329.64052751 -135.203125 294.8125 C-135.87472656 293.925625 -136.54632813 293.03875 -137.23828125 292.125 C-137.96144531 291.2175 -138.68460938 290.31 -139.4296875 289.375 C-168.48897759 252.17910868 -180.4854602 204.07056056 -174.984375 157.45703125 C-168.63560086 109.41827042 -143.99536439 66.51369014 -105.6640625 36.90917969 C-74.94082288 13.49479792 -38.413791 1.48280014 0 0 Z M-37.23828125 64.125 C-37.23828125 75.015 -37.23828125 85.905 -37.23828125 97.125 C-50.10828125 97.125 -62.97828125 97.125 -76.23828125 97.125 C-76.23828125 103.725 -76.23828125 110.325 -76.23828125 117.125 C-68.97828125 117.125 -61.71828125 117.125 -54.23828125 117.125 C-54.23828125 158.705 -54.23828125 200.285 -54.23828125 243.125 C-61.49828125 243.125 -68.75828125 243.125 -76.23828125 243.125 C-76.23828125 249.725 -76.23828125 256.325 -76.23828125 263.125 C-63.36828125 263.125 -50.49828125 263.125 -37.23828125 263.125 C-37.23828125 274.015 -37.23828125 284.905 -37.23828125 296.125 C-30.30828125 296.125 -23.37828125 296.125 -16.23828125 296.125 C-16.23828125 285.235 -16.23828125 274.345 -16.23828125 263.125 C-11.61828125 263.125 -6.99828125 263.125 -2.23828125 263.125 C-2.23828125 274.015 -2.23828125 284.905 -2.23828125 296.125 C4.69171875 296.125 11.62171875 296.125 18.76171875 296.125 C18.76171875 285.235 18.76171875 274.345 18.76171875 263.125 C21.95859375 263.16625 25.15546875 263.2075 28.44921875 263.25 C44.39260634 263.27328038 59.0684824 261.76252956 71.26171875 250.3125 C79.99824364 240.56575596 84.54673883 229.15843124 84.109375 215.98046875 C82.49820296 202.74713439 76.18692062 191.41975861 65.76171875 183.125 C59.06250146 179.00310778 52.50425375 176.4154225 44.76171875 175.125 C45.53515625 174.83367187 46.30859375 174.54234375 47.10546875 174.2421875 C58.82515451 169.62973692 68.73896283 163.19958042 74.13671875 151.375 C77.8922558 142.29639739 78.29526221 131.60428514 75.19921875 122.25 C71.09554719 112.57910967 63.81157845 104.30359898 54.15014648 99.94750977 C46.27995771 97.1493864 39.31308204 96.63279653 31.01171875 96.875 C26.96921875 96.9575 22.92671875 97.04 18.76171875 97.125 C18.76171875 86.235 18.76171875 75.345 18.76171875 64.125 C11.83171875 64.125 4.90171875 64.125 -2.23828125 64.125 C-2.23828125 75.015 -2.23828125 85.905 -2.23828125 97.125 C-6.85828125 97.125 -11.47828125 97.125 -16.23828125 97.125 C-16.23828125 86.235 -16.23828125 75.345 -16.23828125 64.125 C-23.16828125 64.125 -30.09828125 64.125 -37.23828125 64.125 Z " fill="#000000" transform="translate(252.23828125,75.875)"/>
<path d="M0 0 C0.8751828 0.00182281 1.7503656 0.00364563 2.65206909 0.00552368 C16.42760097 0.05368604 29.81502328 0.72187639 43.375 3.3125 C44.2937793 3.47878906 45.21255859 3.64507812 46.15917969 3.81640625 C84.70674572 10.91346921 120.49657882 27.3007487 151.375 51.3125 C152.61830078 52.26382813 152.61830078 52.26382813 153.88671875 53.234375 C161.09355526 58.8512975 167.75684517 65.02363873 174.375 71.3125 C175.20386719 72.09882812 176.03273438 72.88515625 176.88671875 73.6953125 C182.53555673 79.19627514 187.49554931 85.12634896 192.375 91.3125 C193.15617187 92.27671875 193.93734375 93.2409375 194.7421875 94.234375 C222.89978046 129.67875719 239.04810199 171.72804299 245.375 216.3125 C245.4795752 217.04299561 245.58415039 217.77349121 245.69189453 218.52612305 C246.77376924 227.46465315 246.61889778 236.51019612 246.625 245.5 C246.62567474 246.39266571 246.62634949 247.28533142 246.62704468 248.20504761 C246.61035273 262.12160559 245.99249131 275.61189096 243.375 289.3125 C243.20871094 290.2312793 243.04242188 291.15005859 242.87109375 292.09667969 C234.82590625 335.7939666 214.77030686 376.09846747 185.375 409.3125 C184.60414063 410.19421875 183.83328125 411.0759375 183.0390625 411.984375 C174.49892702 421.63322982 165.50662479 430.34704126 155.375 438.3125 C154.41207031 439.09238281 153.44914062 439.87226563 152.45703125 440.67578125 C122.01720021 464.86560896 85.77174581 481.0854484 47.6875 488.5625 C46.53266113 488.78945557 46.53266113 488.78945557 45.35449219 489.02099609 C30.55741014 491.72331091 15.76993444 492.69475616 0.75 492.625 C-0.48508301 492.62226578 -0.48508301 492.62226578 -1.74511719 492.61947632 C-23.31742903 492.53953836 -43.73218736 489.68116467 -64.625 484.3125 C-65.72303955 484.03865479 -65.72303955 484.03865479 -66.84326172 483.75927734 C-108.06186463 473.33186623 -144.31992714 449.49792731 -174.625 420.3125 C-175.4190625 419.5596875 -176.213125 418.806875 -177.03125 418.03125 C-182.38136082 412.85098397 -187.0086093 407.14656971 -191.625 401.3125 C-192.79869141 399.86423828 -192.79869141 399.86423828 -193.99609375 398.38671875 C-228.1979015 355.31980243 -246.17578698 301.49415904 -245.9375 246.6875 C-245.93567719 245.8123172 -245.93385437 244.9371344 -245.93197632 244.03543091 C-245.88381396 230.25989903 -245.21562361 216.87247672 -242.625 203.3125 C-242.45871094 202.3937207 -242.29242188 201.47494141 -242.12109375 200.52832031 C-233.05943568 151.31009233 -208.84522273 108.34500867 -174.625 72.3125 C-173.83996094 71.48492187 -173.05492187 70.65734375 -172.24609375 69.8046875 C-166.74366301 64.15460656 -160.81267124 59.19314978 -154.625 54.3125 C-153.17867187 53.14074219 -153.17867187 53.14074219 -151.703125 51.9453125 C-108.64223318 17.73704057 -54.80412131 -0.23827595 0 0 Z M-148.9375 113.8125 C-158.00922598 124.08870725 -165.80486808 135.43840578 -172.625 147.3125 C-172.98303711 147.93286133 -173.34107422 148.55322266 -173.70996094 149.19238281 C-199.57975174 194.4925629 -205.59323699 248.98061993 -192.0222168 299.17285156 C-177.33073485 351.08186161 -142.87398206 394.6192591 -95.8125 421.04296875 C-75.69739961 432.04574241 -54.23169515 439.44549598 -31.625 443.3125 C-29.84029297 443.64894531 -29.84029297 443.64894531 -28.01953125 443.9921875 C20.79385742 451.76400293 73.76893706 438.82918931 113.875 410.1875 C116.06143006 408.58631403 118.21872978 406.95485462 120.375 405.3125 C121.24253906 404.65765625 122.11007812 404.0028125 123.00390625 403.328125 C162.61088938 372.5580129 189.13504478 327.77468353 197.375 278.3125 C197.71144531 276.38277344 197.71144531 276.38277344 198.0546875 274.4140625 C205.72135849 221.79759449 190.92175646 168.81199442 159.6875 126.3125 C143.33566638 104.60338756 122.91033592 86.83050759 99.375 73.3125 C98.75463867 72.95446289 98.13427734 72.59642578 97.49511719 72.22753906 C18.14946888 26.91523966 -80.18078285 45.01089418 -148.9375 113.8125 Z " fill="#000000" transform="translate(255.625,9.6875)"/>
<path d="M0 0 C6.435 -0.0825 12.87 -0.165 19.5 -0.25 C22.52317383 -0.30462402 22.52317383 -0.30462402 25.60742188 -0.36035156 C27.22785379 -0.37204801 28.84829758 -0.38223757 30.46875 -0.390625 C31.29149414 -0.41108887 32.11423828 -0.43155273 32.96191406 -0.45263672 C39.67397206 -0.45663675 44.82396981 1.32314941 49.98828125 5.67578125 C55.9457 13.03908053 57.99473224 19.54323049 57 29 C55.57872619 35.41225861 52.43755912 40.3590122 47.2331543 44.35742188 C38.42409935 49.65700034 28.78719517 48.54447706 18.875 48.3125 C12.64625 48.209375 6.4175 48.10625 0 48 C0 32.16 0 16.32 0 0 Z " fill="#000000" transform="translate(236,264)"/>
<path d="M0 0 C5.89875 -0.103125 11.7975 -0.20625 17.875 -0.3125 C20.63593018 -0.38078003 20.63593018 -0.38078003 23.45263672 -0.45043945 C32.09541016 -0.57622253 39.90252215 -0.68281872 47 5 C51.55583545 9.95572069 53.88397903 14.74194436 54.16796875 21.515625 C53.69095093 28.5710513 51.13632117 34.09195977 46 39 C40.38202414 42.70274767 35.53471636 43.56462567 28.90625 43.390625 C28.16729492 43.38659668 27.42833984 43.38256836 26.66699219 43.37841797 C23.94440364 43.357716 21.22217306 43.30187277 18.5 43.25 C9.3425 43.12625 9.3425 43.12625 0 43 C0 28.81 0 14.62 0 0 Z " fill="#000000" transform="translate(236,198)"/>
</svg>
